<svg width="960" height="280" viewBox="0 0 960 280" fill="none" xmlns="http://www.w3.org/2000/svg">
  <defs>
    <linearGradient id="ast-logo-bg" x1="30" y1="26" x2="242" y2="250" gradientUnits="userSpaceOnUse">
      <stop stop-color="#0F2E46" />
      <stop offset="0.55" stop-color="#123C55" />
      <stop offset="1" stop-color="#0A2235" />
    </linearGradient>
    <linearGradient id="ast-logo-accent" x1="72" y1="70" x2="220" y2="212" gradientUnits="userSpaceOnUse">
      <stop stop-color="#21E6A2" />
      <stop offset="1" stop-color="#0BB8FF" />
    </linearGradient>
  </defs>

  <rect x="24" y="24" width="232" height="232" rx="66" fill="url(#ast-logo-bg)" />
  <rect x="24" y="24" width="232" height="232" rx="66" stroke="#5DA4C9" stroke-opacity="0.24" stroke-width="2" />

  <path d="M68 177C68 140.549 97.5492 111 134 111H213" stroke="url(#ast-logo-accent)" stroke-width="12" stroke-linecap="round" />
  <path d="M181 79H213V111" stroke="url(#ast-logo-accent)" stroke-width="12" stroke-linecap="round" stroke-linejoin="round" />

  <g stroke="#C8F7E7" stroke-linecap="round" stroke-opacity="0.92">
    <path d="M84 172V198" stroke-width="4" />
    <path d="M111 151V193" stroke-width="4" />
    <path d="M138 134V188" stroke-width="4" />
    <path d="M165 120V183" stroke-width="4" />
  </g>

  <g fill="url(#ast-logo-accent)">
    <rect x="75" y="177" width="18" height="16" rx="4" />
    <rect x="102" y="158" width="18" height="21" rx="4" />
    <rect x="129" y="143" width="18" height="25" rx="4" />
    <rect x="156" y="129" width="18" height="29" rx="4" />
  </g>

  <circle cx="213" cy="111" r="8" fill="#C8F7E7" />

  <text x="292" y="124" fill="#E6F2F7" font-family="Space Grotesk, Segoe UI, sans-serif" font-size="74" font-weight="700" letter-spacing="0.5">
    AI Smart Trader
  </text>
  <text x="294" y="178" fill="#8BB0C4" font-family="IBM Plex Mono, Consolas, monospace" font-size="28" letter-spacing="1.2">
    simulate • analyze • improve
  </text>
</svg>
